<svg width="24" height="24" viewBox="0 0 24 24" fill="none" xmlns="http://www.w3.org/2000/svg">
<path fill-rule="evenodd" clip-rule="evenodd" d="M12 3C16.9669 3 21 7.03306 21 12C21 16.9669 16.9669 21 12 21C7.03306 21 3 16.9669 3 12C3 7.03306 7.03306 3 12 3ZM13.0588 19.3366C16.6482 18.822 19.4118 15.7313 19.4118 12C19.4118 7.90977 16.0902 4.58824 12 4.58824C7.90977 4.58824 4.58824 7.90977 4.58824 12C4.58824 15.5831 7.13577 18.5753 10.5176 19.2635V14.4353H8.4V12H10.5176V10.0941C10.5176 7.97647 11.7882 6.81177 13.6941 6.81177C14.6471 6.81177 15.6 7.02353 15.6 7.02353V9.14118H14.5412C13.4824 9.14118 13.1647 9.77647 13.1647 10.4118V12H15.4941L15.0706 14.4353H13.0588V19.3366Z" fill="#6A5F4F"/>
</svg>
