<svg width="24" height="24" viewBox="0 0 24 24" fill="none" xmlns="http://www.w3.org/2000/svg">
<path fill-rule="evenodd" clip-rule="evenodd" d="M8.9 4H15.7C16.6 4.1 17.2 4.2 17.7 4.4C18.3 4.7 18.7 4.9 19.2 5.4C19.7 5.9 20 6.4 20.2 6.9C20.4 7.4 20.6 8 20.6 8.9V15.7C20.5 16.6 20.4 17.2 20.2 17.7C19.9 18.3 19.7 18.7 19.2 19.2C18.7 19.7 18.2 20 17.7 20.2C17.2 20.4 16.6 20.6 15.7 20.6H8.9C8 20.5 7.4 20.4 6.9 20.2C6.3 19.9 5.9 19.7 5.4 19.2C4.9 18.7 4.6 18.2 4.4 17.7C4.2 17.2 4 16.6 4 15.7V8.9C4.1 8 4.2 7.4 4.4 6.9C4.7 6.3 4.9 5.9 5.4 5.4C5.9 4.9 6.4 4.6 6.9 4.4C7.4 4.2 8 4 8.9 4ZM15.7 5.5H8.9C8.1 5.6 7.7 5.7 7.4 5.8C7 5.9 6.7 6.1 6.4 6.4C6.163 6.637 6.05 6.875 5.915 7.162C5.879 7.237 5.842 7.317 5.8 7.4C5.785 7.446 5.767 7.495 5.748 7.548C5.643 7.833 5.5 8.224 5.5 8.9V15.7C5.6 16.5 5.7 16.9 5.8 17.2C5.9 17.6 6.1 17.9 6.4 18.2C6.637 18.437 6.875 18.55 7.162 18.685C7.237 18.721 7.317 18.758 7.4 18.8C7.446 18.816 7.495 18.833 7.548 18.852C7.833 18.957 8.224 19.1 8.9 19.1H15.7C16.5 19 16.9 18.9 17.2 18.8C17.6 18.7 17.9 18.5 18.2 18.2C18.437 17.963 18.55 17.725 18.685 17.438C18.721 17.363 18.758 17.284 18.8 17.2C18.816 17.154 18.833 17.105 18.852 17.053C18.957 16.767 19.1 16.376 19.1 15.7V8.9C19 8.1 18.9 7.7 18.8 7.4C18.7 7 18.5 6.7 18.2 6.4C17.963 6.163 17.725 6.05 17.438 5.915C17.363 5.879 17.283 5.842 17.2 5.8C17.154 5.785 17.105 5.767 17.053 5.748C16.767 5.643 16.376 5.5 15.7 5.5ZM12.3 8C14.7 8 16.6 9.9 16.6 12.3C16.6 14.7 14.7 16.6 12.3 16.6C9.9 16.6 8 14.7 8 12.3C8 9.9 9.9 8 12.3 8ZM12.3 15.1C13.8 15.1 15.1 13.8 15.1 12.3C15.1 10.7 13.8 9.5 12.3 9.5C10.7 9.5 9.5 10.8 9.5 12.3C9.5 13.9 10.8 15.1 12.3 15.1ZM17.7 7.9C17.7 8.452 17.252 8.9 16.7 8.9C16.148 8.9 15.7 8.452 15.7 7.9C15.7 7.348 16.148 6.9 16.7 6.9C17.252 6.9 17.7 7.348 17.7 7.9Z" fill="#6A5F4F"/>
</svg>
