<svg width="28" height="28" viewBox="0 0 28 28" fill="none" xmlns="http://www.w3.org/2000/svg">
<path fill-rule="evenodd" clip-rule="evenodd" d="M14 0C6.26801 0 0 6.26801 0 14C0 21.732 6.26801 28 14 28C21.732 28 28 21.732 28 14C28 6.26801 21.732 0 14 0ZM16.7605 13.4797C16.8146 13.503 16.8679 13.5273 16.9205 13.5526C17.6636 13.9104 18.207 14.4522 18.492 15.1192C18.8893 16.0493 18.9256 17.5644 17.7202 18.7731C16.7989 19.697 15.6805 20.114 14.0939 20.125H14.0868C12.3021 20.1126 10.9298 19.5098 10.0079 18.3335C9.18745 17.2867 8.76426 15.8301 8.75004 14.0043L8.75 14L8.75004 13.9957C8.76426 12.1699 9.18745 10.7133 10.0079 9.66652C10.9298 8.49017 12.3021 7.88741 14.0868 7.875H14.0939C15.8822 7.88745 17.2701 8.48793 18.219 9.6598C18.6873 10.238 19.0313 10.9351 19.25 11.7441L18.2236 12.019C18.0432 11.3617 17.7696 10.798 17.4066 10.3498C16.6664 9.43569 15.5507 8.96674 14.0903 8.95584C12.6405 8.96665 11.5439 9.43336 10.831 10.343C10.1634 11.1949 9.81839 12.4252 9.80552 14C9.81839 15.5748 10.1634 16.8051 10.831 17.6569C11.5439 18.5666 12.6405 19.0333 14.0904 19.0441C15.3974 19.0345 16.2623 18.7224 16.9818 18.0009C17.803 17.1773 17.7877 16.1672 17.525 15.5524C17.3706 15.1908 17.0909 14.89 16.7135 14.6614C16.6216 15.349 16.4134 15.8947 16.0842 16.3158C15.6509 16.8703 15.0296 17.1735 14.2378 17.2171C13.6381 17.25 13.0612 17.1048 12.6132 16.808C12.0834 16.4569 11.7733 15.9194 11.7401 15.2947C11.6747 14.063 12.6481 13.1767 14.1623 13.0891C14.6998 13.0582 15.2026 13.0826 15.6675 13.1619C15.6058 12.783 15.4811 12.4827 15.2948 12.2655C15.0387 11.967 14.643 11.814 14.1186 11.8107L14.104 11.8106C13.683 11.8106 13.1113 11.9289 12.7471 12.4836L11.8712 11.8805C12.3588 11.1379 13.151 10.7298 14.1036 10.7298L14.1252 10.7298C15.7178 10.74 16.6663 11.7375 16.7605 13.4797ZM12.794 15.236C12.828 15.8764 13.5174 16.1753 14.1811 16.1378C14.8308 16.102 15.5683 15.8461 15.694 14.2701C15.3569 14.1961 14.9862 14.1575 14.5898 14.1575C14.4694 14.1575 14.3467 14.161 14.2218 14.1682C13.1307 14.2313 12.7688 14.7612 12.794 15.236Z" fill="#C4C4C4"/>
</svg>
