<svg width="20" height="19" viewBox="0 0 20 19" fill="none" xmlns="http://www.w3.org/2000/svg">
<path fill-rule="evenodd" clip-rule="evenodd" d="M0.87868 1.37868C0 2.25736 0 3.67157 0 6.5V12.5C0 15.3284 0 16.7426 0.87868 17.6213C1.75736 18.5 3.17157 18.5 6 18.5H16C16.93 18.5 17.395 18.5 17.7765 18.3978C18.8117 18.1204 19.6204 17.3117 19.8978 16.2765C20 15.895 20 15.43 20 14.5H14C12.3431 14.5 11 13.1569 11 11.5C11 9.84315 12.3431 8.5 14 8.5H20V6.5C20 3.67157 20 2.25736 19.1213 1.37868C18.2426 0.5 16.8284 0.5 14 0.5H6C3.17157 0.5 1.75736 0.5 0.87868 1.37868ZM5 4.5C4.44772 4.5 4 4.94772 4 5.5C4 6.05228 4.44772 6.5 5 6.5H8C8.55228 6.5 9 6.05228 9 5.5C9 4.94772 8.55228 4.5 8 4.5H5Z" fill="white"/>
</svg>
