<svg width="24" height="24" viewBox="0 0 24 24" fill="none" xmlns="http://www.w3.org/2000/svg">
<path fill-rule="evenodd" clip-rule="evenodd" d="M13.6919 7.11944C12.2589 7.74875 9.39488 9.05126 5.09992 11.027C4.40248 11.3198 4.03714 11.6063 4.00388 11.8864C3.94767 12.3598 4.50915 12.5462 5.27374 12.8C5.37774 12.8346 5.4855 12.8703 5.59598 12.9083C6.34822 13.1664 7.36012 13.4685 7.88616 13.4805C8.36333 13.4913 8.89591 13.2836 9.48389 12.8573C13.4968 9.9973 15.5683 8.55169 15.6983 8.52052C15.7901 8.49854 15.9172 8.47089 16.0034 8.55173C16.0895 8.63258 16.0811 8.78568 16.0719 8.82675C16.0163 9.07711 13.8123 11.2406 12.6717 12.3601C12.3161 12.7092 12.0639 12.9567 12.0124 13.0133C11.8969 13.1399 11.7791 13.2598 11.666 13.3749C10.9672 14.0862 10.4431 14.6196 11.695 15.4907C12.2967 15.9093 12.7781 16.2554 13.2584 16.6008C13.7829 16.9779 14.306 17.3541 14.9829 17.8226C15.1554 17.9419 15.3201 18.0659 15.4805 18.1866C16.0909 18.6461 16.6393 19.0589 17.3169 18.9931C17.7105 18.9548 18.1172 18.564 18.3237 17.3983C18.8118 14.6434 19.7712 8.67437 19.9929 6.21469C20.0123 5.99919 19.9879 5.72339 19.9683 5.60232C19.9486 5.48125 19.9076 5.30876 19.7586 5.18106C19.5821 5.02983 19.3095 4.99794 19.1877 5.0001C18.6335 5.01052 17.7834 5.32264 13.6919 7.11944Z" fill="#6A5F4F"/>
</svg>
