<svg width="24" height="24" viewBox="0 0 24 24" fill="none" xmlns="http://www.w3.org/2000/svg">
<path d="M8.03465 6.83424C7.87079 6.80782 7.70429 6.84315 7.56158 6.93124H7.54925C7.21889 7.12505 6.92113 7.37167 6.66741 7.65358C6.45598 7.90025 6.34146 8.14688 6.31151 8.38473C6.29389 8.52569 6.30622 8.66672 6.34763 8.79886L6.36348 8.80757C6.60046 9.51234 6.91144 10.1819 7.29025 10.8162C7.77918 11.7059 8.37999 12.5252 9.07946 13.2564L9.09973 13.2917L9.1332 13.3093L9.15346 13.3357L9.17813 13.3621C9.91549 14.0581 10.7392 14.666 11.6289 15.1593C12.6464 15.7055 13.264 15.9697 13.6349 16.0754V16.0843C13.7432 16.1195 13.8419 16.1372 13.9415 16.1372C14.2577 16.1107 14.5564 15.9786 14.7907 15.7671C15.077 15.5117 15.3184 15.2121 15.5078 14.8862V14.8774C15.6857 14.5426 15.625 14.2255 15.3695 14.014C14.8559 13.5648 14.3018 13.1684 13.7124 12.8248C13.3186 12.6133 12.9178 12.7367 12.7557 12.9569L12.4095 13.3974C12.2315 13.6088 11.9091 13.5824 11.9091 13.5824H11.8994C9.4944 12.9745 8.85218 10.5343 8.85218 10.5343C8.85218 10.5343 8.82222 10.2083 9.04511 10.0321L9.47853 9.68853C9.68644 9.52115 9.83092 9.11593 9.60804 8.7195C9.26799 8.12926 8.87068 7.57425 8.42139 7.0633C8.3236 6.94878 8.18617 6.86067 8.03289 6.83424H8.03465Z" fill="#6A5F4F"/>
<path d="M12.0997 5.77718C11.8565 5.77718 11.6592 5.97099 11.6592 6.21765C11.6592 6.46432 11.8565 6.65813 12.0997 6.65813C13.2141 6.65813 14.1391 7.01928 14.8703 7.71523C15.2473 8.10285 15.5398 8.55215 15.7327 9.04548C15.9257 9.54763 16.0137 10.0762 15.9908 10.6048C15.9803 10.8426 16.1697 11.0541 16.4119 11.0629C16.6551 11.0717 16.8603 10.8867 16.8709 10.6401C16.8991 9.98816 16.7907 9.33621 16.5538 8.72835C16.3168 8.12049 15.9556 7.56551 15.4931 7.09861L15.4843 7.08979C14.5769 6.21764 13.4264 5.77718 12.0997 5.77718Z" fill="#6A5F4F"/>
<path d="M12.0694 7.22195C11.8262 7.22195 11.6289 7.42457 11.6289 7.66243C11.6289 7.9091 11.8262 8.10291 12.0694 8.10291H12.0844C12.8878 8.16458 13.4727 8.42886 13.8824 8.86934C14.3026 9.32743 14.5202 9.88239 14.5035 10.5872C14.4982 10.825 14.6911 11.0276 14.9342 11.0364C15.1774 11.0364 15.3791 10.8426 15.3844 10.6048C15.4056 9.6886 15.1122 8.90453 14.5281 8.27024H14.5273C13.9317 7.62714 13.1142 7.29244 12.1284 7.23077L12.1134 7.22195H12.0694Z" fill="#6A5F4F"/>
<path d="M12.052 8.70193C11.8098 8.68432 11.6019 8.87821 11.5895 9.11606C11.5763 9.36273 11.7631 9.56527 12.0062 9.58289C12.3745 9.60051 12.6097 9.70627 12.7577 9.85604C12.9065 10.0058 13.0176 10.2525 13.0378 10.6225C13.0501 10.8691 13.2581 11.0541 13.5012 11.0453C13.7435 11.0277 13.9302 10.825 13.917 10.5784C13.8888 10.0498 13.7232 9.58298 13.384 9.23941C13.0431 8.89584 12.5788 8.72836 12.052 8.70193Z" fill="#6A5F4F"/>
<path fill-rule="evenodd" clip-rule="evenodd" d="M7.24356 3.46911C10.0468 2.84363 12.9539 2.84363 15.7571 3.46911L16.0558 3.53955C17.7269 3.90955 19.0457 5.19575 19.4668 6.85194C20.1777 9.65338 20.1777 12.5958 19.4668 15.3973C19.0457 17.0623 17.7269 18.3397 16.0558 18.7097L15.7571 18.7801C13.9961 19.1765 12.1945 19.3175 10.4027 19.2206L8.06549 21.3084C7.88577 21.4758 7.63382 21.5199 7.40653 21.4406C7.17924 21.3613 7.01275 21.1674 6.9731 20.9296L6.58636 18.6215C5.08698 18.1546 3.92412 16.9389 3.53386 15.3973C2.82205 12.5958 2.82205 9.65338 3.53386 6.85194C3.95495 5.19575 5.27374 3.90955 6.94491 3.53955L7.24356 3.46911ZM15.469 4.76409C12.8552 4.17385 10.1454 4.17385 7.53163 4.76409L7.23298 4.82581C6.0481 5.0901 5.11341 6.00622 4.81476 7.17789C4.15669 9.7679 4.15669 12.4813 4.81476 15.0713C5.11341 16.2518 6.0481 17.1591 7.23298 17.4234L7.31139 17.441C7.57391 17.5027 7.77477 17.7141 7.8197 17.9784L8.0787 19.5289L9.72785 18.049C9.86087 17.9344 10.0371 17.8727 10.215 17.8815C11.9716 18.0048 13.7415 17.8728 15.469 17.4939L15.7677 17.4234C16.9517 17.1591 17.8873 16.2518 18.1859 15.0713C18.8431 12.4813 18.8431 9.7679 18.1859 7.17789C17.8873 6.00622 16.9517 5.0901 15.7677 4.82581L15.469 4.76409Z" fill="#6A5F4F"/>
</svg>
