<svg width="41" height="43" viewBox="0 0 41 43" fill="none" xmlns="http://www.w3.org/2000/svg">
<path fill-rule="evenodd" clip-rule="evenodd" d="M15.539 41.583C6.618 39.391 0 31.422 0 21.939C0 16.749 1.983 12.012 5.241 8.428L6.205 9.206C3.122 12.577 1.244 17.044 1.244 21.939C1.244 30.74 7.312 38.152 15.539 40.314V39.809C15.539 39.293 15.963 38.874 16.486 38.874H25.46V39.48H21.441V40.047H25.46V40.654H21.441V41.221H25.46V41.827H21.441V42.394H25.46V43H16.486C15.963 43 15.539 42.581 15.539 42.065V41.583ZM24.766 3.396C24.413 4.473 23.219 5.267 21.802 5.267C18.188 5.267 16.382 3.133 16.382 2.732C16.377 2.729 16.377 2.539 16.382 2.535C16.382 2.134 18.188 0 21.802 0C23.34 0 24.615 0.935 24.838 2.153C34.072 4.121 41 12.238 41 21.939C41 27.857 38.422 33.185 34.316 36.888L33.343 36.102C37.278 32.62 39.756 27.563 39.756 21.939C39.756 12.893 33.344 5.314 24.766 3.396ZM20.5 16.441L14.627 19.211V10.999L20.5 13.769L26.373 10.999V19.211L20.5 16.441ZM20.674 25.519C19.775 25.519 19.046 24.799 19.046 23.911C19.046 23.023 19.775 22.303 20.674 22.303C21.574 22.303 22.303 23.023 22.303 23.911C22.303 24.799 21.574 25.519 20.674 25.519ZM20.674 33.066C19.775 33.066 19.046 32.346 19.046 31.458C19.046 30.57 19.775 29.85 20.674 29.85C21.574 29.85 22.303 30.57 22.303 31.458C22.303 32.346 21.574 33.066 20.674 33.066Z" fill="black"/>
</svg>
